<svg xmlns="http://www.w3.org/2000/svg" viewBox="0 0 64 64" role="img" aria-label="Asteroids icon">
  <defs>
    <linearGradient id="spaceGlow" x1="0%" y1="0%" x2="100%" y2="100%">
      <stop offset="0%" stop-color="#0f4fe6" />
      <stop offset="100%" stop-color="#00a6a6" />
    </linearGradient>
  </defs>
  <rect x="2" y="2" width="60" height="60" rx="14" fill="#0f172a" />
  <rect x="2.5" y="2.5" width="59" height="59" rx="13.5" fill="none" stroke="url(#spaceGlow)" />
  <circle cx="18" cy="18" r="1.6" fill="#dbeafe" />
  <circle cx="42" cy="14" r="1.2" fill="#dbeafe" />
  <circle cx="51" cy="24" r="1.5" fill="#dbeafe" />
  <circle cx="13" cy="43" r="1.3" fill="#dbeafe" />
  <polygon points="34,22 40,37 24,37" fill="none" stroke="#e2e8f0" stroke-width="2.5" stroke-linejoin="round" />
  <polygon points="20,44 25,47 23,53 16,52 14,46" fill="#64748b" />
  <polygon points="46,41 50,44 48,50 42,49 41,44" fill="#94a3b8" />
  <polygon points="33,38 35,46 29,50 24,44 26,37" fill="#cbd5e1" />
</svg>
