<svg xmlns="http://www.w3.org/2000/svg" viewBox="0 0 64 64" role="img" aria-label="Space Invaders icon">
  <defs>
    <linearGradient id="invaderGlow" x1="0%" y1="0%" x2="100%" y2="100%">
      <stop offset="0%" stop-color="#7cff7c" />
      <stop offset="100%" stop-color="#2dd4bf" />
    </linearGradient>
  </defs>
  <rect x="2" y="2" width="60" height="60" rx="14" fill="#090909" />
  <rect x="2.5" y="2.5" width="59" height="59" rx="13.5" fill="none" stroke="url(#invaderGlow)" />
  <circle cx="14" cy="14" r="1.2" fill="#a7f3d0" />
  <circle cx="50" cy="16" r="1.1" fill="#a7f3d0" />
  <circle cx="42" cy="10" r="0.9" fill="#a7f3d0" />
  <g fill="#7cff7c">
    <rect x="20" y="20" width="4" height="4" />
    <rect x="24" y="20" width="4" height="4" />
    <rect x="28" y="20" width="4" height="4" />
    <rect x="32" y="20" width="4" height="4" />
    <rect x="36" y="20" width="4" height="4" />
    <rect x="40" y="20" width="4" height="4" />
    <rect x="16" y="24" width="4" height="4" />
    <rect x="24" y="24" width="4" height="4" />
    <rect x="28" y="24" width="4" height="4" />
    <rect x="32" y="24" width="4" height="4" />
    <rect x="36" y="24" width="4" height="4" />
    <rect x="44" y="24" width="4" height="4" />
    <rect x="16" y="28" width="4" height="4" />
    <rect x="20" y="28" width="4" height="4" />
    <rect x="24" y="28" width="4" height="4" />
    <rect x="28" y="28" width="4" height="4" />
    <rect x="32" y="28" width="4" height="4" />
    <rect x="36" y="28" width="4" height="4" />
    <rect x="40" y="28" width="4" height="4" />
    <rect x="44" y="28" width="4" height="4" />
    <rect x="16" y="32" width="4" height="4" />
    <rect x="20" y="32" width="4" height="4" />
    <rect x="28" y="32" width="4" height="4" />
    <rect x="32" y="32" width="4" height="4" />
    <rect x="40" y="32" width="4" height="4" />
    <rect x="44" y="32" width="4" height="4" />
    <rect x="20" y="36" width="4" height="4" />
    <rect x="24" y="36" width="4" height="4" />
    <rect x="36" y="36" width="4" height="4" />
    <rect x="40" y="36" width="4" height="4" />
    <rect x="16" y="40" width="4" height="4" />
    <rect x="24" y="40" width="4" height="4" />
    <rect x="28" y="40" width="4" height="4" />
    <rect x="32" y="40" width="4" height="4" />
    <rect x="36" y="40" width="4" height="4" />
    <rect x="44" y="40" width="4" height="4" />
  </g>
</svg>
