<svg xmlns="http://www.w3.org/2000/svg" viewBox="0 0 1200 760" role="img" aria-labelledby="t d">
  <title id="t">Origins of Equity Trading in Europe</title>
  <desc id="d">Illustration of early market origins with institutions, coin trade, and sailing commerce.</desc>
  <defs>
    <linearGradient id="bg" x1="0" y1="0" x2="1" y2="1">
      <stop offset="0%" stop-color="#f3e3c7"/>
      <stop offset="52%" stop-color="#d6c6a1"/>
      <stop offset="100%" stop-color="#b8cfde"/>
    </linearGradient>
    <pattern id="dot" width="30" height="30" patternUnits="userSpaceOnUse">
      <circle cx="3" cy="3" r="1.2" fill="rgba(255,255,255,0.28)"/>
    </pattern>
    <filter id="shadow" x="-20%" y="-20%" width="140%" height="140%">
      <feDropShadow dx="0" dy="4" stdDeviation="5" flood-color="rgba(15,35,45,0.24)"/>
    </filter>
    <marker id="arrow" markerWidth="9" markerHeight="9" refX="7" refY="4.5" orient="auto">
      <polygon points="0,0 9,4.5 0,9" fill="#1d3b4d"/>
    </marker>
  </defs>
  <rect width="1200" height="760" fill="url(#bg)"/>
  <rect width="1200" height="760" fill="url(#dot)"/>
  <rect x="40" y="40" width="1120" height="680" rx="30" fill="rgba(255,255,255,0.25)" stroke="rgba(25,50,65,0.20)"/>
  
  <circle cx="185" cy="520" r="130" fill="#d8b576" opacity="0.45"/>
  <rect x="90" y="390" width="240" height="170" rx="8" fill="#b78f55" filter="url(#shadow)"/>
  <rect x="118" y="430" width="26" height="120" fill="#e8d6b3"/>
  <rect x="160" y="430" width="26" height="120" fill="#e8d6b3"/>
  <rect x="202" y="430" width="26" height="120" fill="#e8d6b3"/>
  <rect x="244" y="430" width="26" height="120" fill="#e8d6b3"/>
  <polygon points="80,390 210,300 340,390" fill="#8e6a3f"/>

  <ellipse cx="570" cy="525" rx="165" ry="54" fill="#8f5b35" opacity="0.55"/>
  <circle cx="520" cy="500" r="42" fill="#d6b36e" stroke="#916b2a" stroke-width="4"/>
  <circle cx="575" cy="490" r="42" fill="#e0bf7c" stroke="#916b2a" stroke-width="4"/>
  <circle cx="632" cy="500" r="42" fill="#d6b36e" stroke="#916b2a" stroke-width="4"/>

  <path d="M820 515 L1030 515 L1090 470 L915 470 Z" fill="#6d503b"/>
  <polygon points="875,470 940,340 940,470" fill="#f8f1dc"/>
  <polygon points="945,470 1015,360 1015,470" fill="#efe4c4"/>
  <rect x="910" y="425" width="8" height="90" fill="#4e3927"/>
  <circle cx="845" cy="548" r="18" fill="#264758"/>
  <circle cx="890" cy="548" r="18" fill="#264758"/>

</svg>
