<svg xmlns="http://www.w3.org/2000/svg" viewBox="0 0 1200 760" role="img" aria-labelledby="t d">
  <title id="t">Institutional Birth of Exchanges</title>
  <desc id="d">Illustration of rules, institutions, and formal exchange governance.</desc>
  <defs>
    <linearGradient id="bg" x1="0" y1="0" x2="1" y2="1">
      <stop offset="0%" stop-color="#d9d2bf"/>
      <stop offset="52%" stop-color="#bfc8d2"/>
      <stop offset="100%" stop-color="#93a8b8"/>
    </linearGradient>
    <pattern id="dot" width="30" height="30" patternUnits="userSpaceOnUse">
      <circle cx="3" cy="3" r="1.2" fill="rgba(255,255,255,0.28)"/>
    </pattern>
    <filter id="shadow" x="-20%" y="-20%" width="140%" height="140%">
      <feDropShadow dx="0" dy="4" stdDeviation="5" flood-color="rgba(15,35,45,0.24)"/>
    </filter>
    <marker id="arrow" markerWidth="9" markerHeight="9" refX="7" refY="4.5" orient="auto">
      <polygon points="0,0 9,4.5 0,9" fill="#1d3b4d"/>
    </marker>
  </defs>
  <rect width="1200" height="760" fill="url(#bg)"/>
  <rect width="1200" height="760" fill="url(#dot)"/>
  <rect x="40" y="40" width="1120" height="680" rx="30" fill="rgba(255,255,255,0.25)" stroke="rgba(25,50,65,0.20)"/>
  
  <rect x="360" y="250" width="480" height="300" rx="10" fill="#d9d3bf" stroke="#7d7667" stroke-width="4" filter="url(#shadow)"/>
  <polygon points="340,250 600,150 860,250" fill="#8e8470"/>
  <rect x="430" y="305" width="40" height="210" fill="#efe7d2"/>
  <rect x="505" y="305" width="40" height="210" fill="#efe7d2"/>
  <rect x="580" y="305" width="40" height="210" fill="#efe7d2"/>
  <rect x="655" y="305" width="40" height="210" fill="#efe7d2"/>
  <rect x="730" y="305" width="40" height="210" fill="#efe7d2"/>

  <line x1="170" y1="520" x2="290" y2="475" stroke="#684a2e" stroke-width="18" stroke-linecap="round"/>
  <rect x="130" y="520" width="150" height="42" rx="12" fill="#9d6e3f"/>
  <rect x="118" y="548" width="190" height="22" rx="8" fill="#6f4f30"/>

  <line x1="930" y1="260" x2="930" y2="440" stroke="#50606c" stroke-width="9"/>
  <line x1="860" y1="300" x2="1000" y2="300" stroke="#50606c" stroke-width="8"/>
  <path d="M865 300 L835 356 L895 356 Z" fill="#d2b271"/>
  <path d="M995 300 L965 356 L1025 356 Z" fill="#d2b271"/>
  <rect x="880" y="440" width="100" height="20" rx="6" fill="#50606c"/>

</svg>
