<svg xmlns="http://www.w3.org/2000/svg" viewBox="0 0 1200 760" role="img" aria-labelledby="t d">
  <title id="t">Canals, Railways, and Equity</title>
  <desc id="d">Illustration of railway expansion and canal-era infrastructure finance.</desc>
  <defs>
    <linearGradient id="bg" x1="0" y1="0" x2="1" y2="1">
      <stop offset="0%" stop-color="#dce6f0"/>
      <stop offset="52%" stop-color="#aac5d7"/>
      <stop offset="100%" stop-color="#86a776"/>
    </linearGradient>
    <pattern id="dot" width="30" height="30" patternUnits="userSpaceOnUse">
      <circle cx="3" cy="3" r="1.2" fill="rgba(255,255,255,0.28)"/>
    </pattern>
    <filter id="shadow" x="-20%" y="-20%" width="140%" height="140%">
      <feDropShadow dx="0" dy="4" stdDeviation="5" flood-color="rgba(15,35,45,0.24)"/>
    </filter>
    <marker id="arrow" markerWidth="9" markerHeight="9" refX="7" refY="4.5" orient="auto">
      <polygon points="0,0 9,4.5 0,9" fill="#1d3b4d"/>
    </marker>
  </defs>
  <rect width="1200" height="760" fill="url(#bg)"/>
  <rect width="1200" height="760" fill="url(#dot)"/>
  <rect x="40" y="40" width="1120" height="680" rx="30" fill="rgba(255,255,255,0.25)" stroke="rgba(25,50,65,0.20)"/>
  
  <rect x="0" y="520" width="1200" height="240" fill="#5d7a56"/>
  <rect x="0" y="458" width="1200" height="70" fill="#62a0bf"/>
  <path d="M0 458 C230 418, 470 500, 700 458 C920 418, 1080 504, 1200 458 L1200 430 L0 430 Z" fill="#79b6d2"/>

  <line x1="120" y1="390" x2="1080" y2="390" stroke="#4f3b31" stroke-width="8"/>
  <line x1="120" y1="430" x2="1080" y2="430" stroke="#4f3b31" stroke-width="8"/>
  <g stroke="#624d3f" stroke-width="6">
    <line x1="150" y1="390" x2="150" y2="430"/>
    <line x1="200" y1="390" x2="200" y2="430"/>
    <line x1="250" y1="390" x2="250" y2="430"/>
    <line x1="300" y1="390" x2="300" y2="430"/>
    <line x1="350" y1="390" x2="350" y2="430"/>
    <line x1="400" y1="390" x2="400" y2="430"/>
    <line x1="450" y1="390" x2="450" y2="430"/>
    <line x1="500" y1="390" x2="500" y2="430"/>
    <line x1="550" y1="390" x2="550" y2="430"/>
    <line x1="600" y1="390" x2="600" y2="430"/>
    <line x1="650" y1="390" x2="650" y2="430"/>
    <line x1="700" y1="390" x2="700" y2="430"/>
    <line x1="750" y1="390" x2="750" y2="430"/>
    <line x1="800" y1="390" x2="800" y2="430"/>
    <line x1="850" y1="390" x2="850" y2="430"/>
    <line x1="900" y1="390" x2="900" y2="430"/>
    <line x1="950" y1="390" x2="950" y2="430"/>
    <line x1="1000" y1="390" x2="1000" y2="430"/>
    <line x1="1050" y1="390" x2="1050" y2="430"/>
  </g>

  <rect x="220" y="280" width="560" height="110" rx="20" fill="#b6372e" stroke="#6f1f1a" stroke-width="4" filter="url(#shadow)"/>
  <rect x="760" y="245" width="130" height="145" rx="16" fill="#8f2a23" stroke="#6f1f1a" stroke-width="4"/>
  <rect x="280" y="308" width="90" height="50" rx="8" fill="#dbe8f3"/>
  <rect x="390" y="308" width="90" height="50" rx="8" fill="#dbe8f3"/>
  <rect x="500" y="308" width="90" height="50" rx="8" fill="#dbe8f3"/>
  <rect x="610" y="308" width="90" height="50" rx="8" fill="#dbe8f3"/>
  <rect x="807" y="278" width="56" height="42" rx="8" fill="#dbe8f3"/>

  <circle cx="330" cy="402" r="28" fill="#213642"/>
  <circle cx="470" cy="402" r="28" fill="#213642"/>
  <circle cx="610" cy="402" r="28" fill="#213642"/>
  <circle cx="785" cy="402" r="28" fill="#213642"/>

  <circle cx="905" cy="248" r="18" fill="#626262"/>
  <circle cx="934" cy="218" r="22" fill="#7b7b7b" opacity="0.85"/>
  <circle cx="965" cy="186" r="26" fill="#909090" opacity="0.72"/>

</svg>
