<svg xmlns="http://www.w3.org/2000/svg" viewBox="0 0 1200 760" role="img" aria-labelledby="t d">
  <title id="t">Rise of Asian Markets</title>
  <desc id="d">Illustration of pre-war Asian exchange growth and regional connectivity.</desc>
  <defs>
    <linearGradient id="bg" x1="0" y1="0" x2="1" y2="1">
      <stop offset="0%" stop-color="#f4d9a3"/>
      <stop offset="52%" stop-color="#b4d0dc"/>
      <stop offset="100%" stop-color="#7a94a5"/>
    </linearGradient>
    <pattern id="dot" width="30" height="30" patternUnits="userSpaceOnUse">
      <circle cx="3" cy="3" r="1.2" fill="rgba(255,255,255,0.28)"/>
    </pattern>
    <filter id="shadow" x="-20%" y="-20%" width="140%" height="140%">
      <feDropShadow dx="0" dy="4" stdDeviation="5" flood-color="rgba(15,35,45,0.24)"/>
    </filter>
    <marker id="arrow" markerWidth="9" markerHeight="9" refX="7" refY="4.5" orient="auto">
      <polygon points="0,0 9,4.5 0,9" fill="#1d3b4d"/>
    </marker>
  </defs>
  <rect width="1200" height="760" fill="url(#bg)"/>
  <rect width="1200" height="760" fill="url(#dot)"/>
  <rect x="40" y="40" width="1120" height="680" rx="30" fill="rgba(255,255,255,0.25)" stroke="rgba(25,50,65,0.20)"/>
  
  <circle cx="930" cy="205" r="110" fill="#f2b74f" opacity="0.9"/>
  <rect x="0" y="540" width="1200" height="220" fill="#3f6a7f"/>
  <path d="M70 560 C220 500, 310 520, 430 560 C560 610, 680 610, 820 560 C930 520, 1040 520, 1150 560 L1150 700 L70 700 Z" fill="#2c4c5f"/>

  <polygon points="180,530 260,350 340,530" fill="#6d8ca0"/>
  <rect x="228" y="480" width="24" height="80" fill="#314d5d"/>
  <rect x="470" y="330" width="70" height="230" fill="#4f7083"/>
  <polygon points="505,250 560,330 450,330" fill="#6e8ea0"/>
  <rect x="650" y="280" width="80" height="280" fill="#3a6074"/>
  <rect x="760" y="360" width="90" height="200" fill="#4f7386"/>
  <rect x="880" y="300" width="60" height="260" fill="#355467"/>

  <path d="M160 250 C280 200, 430 220, 560 280" stroke="#f5f0dc" stroke-width="5" fill="none" marker-end="url(#arrow)"/>
  <path d="M560 280 C700 330, 860 320, 980 250" stroke="#f5f0dc" stroke-width="5" fill="none" marker-end="url(#arrow)"/>

</svg>
