<svg xmlns="http://www.w3.org/2000/svg" viewBox="0 0 1200 760" role="img" aria-labelledby="t d">
  <title id="t">1929 Crash and Contagion</title>
  <desc id="d">Illustration of cascading declines and market panic dynamics.</desc>
  <defs>
    <linearGradient id="bg" x1="0" y1="0" x2="1" y2="1">
      <stop offset="0%" stop-color="#d4dce3"/>
      <stop offset="52%" stop-color="#9baab5"/>
      <stop offset="100%" stop-color="#6e808c"/>
    </linearGradient>
    <pattern id="dot" width="30" height="30" patternUnits="userSpaceOnUse">
      <circle cx="3" cy="3" r="1.2" fill="rgba(255,255,255,0.28)"/>
    </pattern>
    <filter id="shadow" x="-20%" y="-20%" width="140%" height="140%">
      <feDropShadow dx="0" dy="4" stdDeviation="5" flood-color="rgba(15,35,45,0.24)"/>
    </filter>
    <marker id="arrow" markerWidth="9" markerHeight="9" refX="7" refY="4.5" orient="auto">
      <polygon points="0,0 9,4.5 0,9" fill="#1d3b4d"/>
    </marker>
  </defs>
  <rect width="1200" height="760" fill="url(#bg)"/>
  <rect width="1200" height="760" fill="url(#dot)"/>
  <rect x="40" y="40" width="1120" height="680" rx="30" fill="rgba(255,255,255,0.25)" stroke="rgba(25,50,65,0.20)"/>
  
  <rect x="0" y="560" width="1200" height="200" fill="#3c4f5a"/>
  <path d="M120 190 L260 220 L360 200 L470 270 L590 240 L700 360 L820 330 L930 460 L1040 450" stroke="#c73c3c" stroke-width="14" fill="none" stroke-linecap="round" stroke-linejoin="round"/>
  <circle cx="1040" cy="450" r="16" fill="#c73c3c"/>

  <rect x="190" y="400" width="56" height="160" rx="8" fill="#d9d4ca" transform="rotate(-16 190 400)"/>
  <rect x="280" y="390" width="56" height="170" rx="8" fill="#d9d4ca" transform="rotate(-26 280 390)"/>
  <rect x="380" y="378" width="56" height="182" rx="8" fill="#d9d4ca" transform="rotate(-37 380 378)"/>
  <rect x="500" y="366" width="56" height="194" rx="8" fill="#d9d4ca" transform="rotate(-49 500 366)"/>

  <circle cx="860" cy="570" r="84" fill="#c7a464"/>
  <path d="M805 520 L915 620 M915 520 L805 620" stroke="#7a251f" stroke-width="12"/>

  <rect x="90" y="470" width="50" height="90" fill="#576b78"/>
  <rect x="148" y="440" width="50" height="120" fill="#516470"/>
  <rect x="206" y="420" width="50" height="140" fill="#4b5d68"/>
  <rect x="264" y="390" width="50" height="170" fill="#455763"/>

</svg>
