<svg xmlns="http://www.w3.org/2000/svg" viewBox="0 0 1200 760" role="img" aria-labelledby="t d">
  <title id="t">Rise of Algorithms</title>
  <desc id="d">Illustration of algorithmic frameworks, compute chips, and automation.</desc>
  <defs>
    <linearGradient id="bg" x1="0" y1="0" x2="1" y2="1">
      <stop offset="0%" stop-color="#dce8f0"/>
      <stop offset="52%" stop-color="#a9c3cf"/>
      <stop offset="100%" stop-color="#7a95a7"/>
    </linearGradient>
    <pattern id="dot" width="30" height="30" patternUnits="userSpaceOnUse">
      <circle cx="3" cy="3" r="1.2" fill="rgba(255,255,255,0.28)"/>
    </pattern>
    <filter id="shadow" x="-20%" y="-20%" width="140%" height="140%">
      <feDropShadow dx="0" dy="4" stdDeviation="5" flood-color="rgba(15,35,45,0.24)"/>
    </filter>
    <marker id="arrow" markerWidth="9" markerHeight="9" refX="7" refY="4.5" orient="auto">
      <polygon points="0,0 9,4.5 0,9" fill="#1d3b4d"/>
    </marker>
  </defs>
  <rect width="1200" height="760" fill="url(#bg)"/>
  <rect width="1200" height="760" fill="url(#dot)"/>
  <rect x="40" y="40" width="1120" height="680" rx="30" fill="rgba(255,255,255,0.25)" stroke="rgba(25,50,65,0.20)"/>
  
  <rect x="0" y="560" width="1200" height="200" fill="#3f5665"/>
  <rect x="430" y="220" width="340" height="280" rx="24" fill="#8fb5c8" stroke="#2f4f62" stroke-width="8"/>
  <rect x="500" y="290" width="200" height="140" rx="16" fill="#2f4f62"/>

  <line x1="430" y1="260" x2="360" y2="260" stroke="#2f4f62" stroke-width="8"/>
  <line x1="430" y1="320" x2="330" y2="320" stroke="#2f4f62" stroke-width="8"/>
  <line x1="430" y1="380" x2="350" y2="380" stroke="#2f4f62" stroke-width="8"/>
  <line x1="430" y1="440" x2="320" y2="440" stroke="#2f4f62" stroke-width="8"/>

  <line x1="770" y1="260" x2="860" y2="260" stroke="#2f4f62" stroke-width="8"/>
  <line x1="770" y1="320" x2="900" y2="320" stroke="#2f4f62" stroke-width="8"/>
  <line x1="770" y1="380" x2="875" y2="380" stroke="#2f4f62" stroke-width="8"/>
  <line x1="770" y1="440" x2="905" y2="440" stroke="#2f4f62" stroke-width="8"/>

  <circle cx="940" cy="180" r="52" fill="#d6c27f" stroke="#826b30" stroke-width="6"/>
  <circle cx="940" cy="180" r="24" fill="#e8d9ab"/>
  <path d="M940 128 L940 110 M940 250 L940 232 M888 180 L870 180 M1010 180 L992 180 M902 142 L890 130 M978 218 L990 230 M902 218 L890 230 M978 142 L990 130" stroke="#826b30" stroke-width="6"/>

</svg>
