<svg xmlns="http://www.w3.org/2000/svg" viewBox="0 0 1200 760" role="img" aria-labelledby="t d">
  <title id="t">Flash Crash and Regulation</title>
  <desc id="d">Illustration of sudden automated dislocation and circuit-breaker controls.</desc>
  <defs>
    <linearGradient id="bg" x1="0" y1="0" x2="1" y2="1">
      <stop offset="0%" stop-color="#d9e4eb"/>
      <stop offset="52%" stop-color="#a6bdcc"/>
      <stop offset="100%" stop-color="#7e98a8"/>
    </linearGradient>
    <pattern id="dot" width="30" height="30" patternUnits="userSpaceOnUse">
      <circle cx="3" cy="3" r="1.2" fill="rgba(255,255,255,0.28)"/>
    </pattern>
    <filter id="shadow" x="-20%" y="-20%" width="140%" height="140%">
      <feDropShadow dx="0" dy="4" stdDeviation="5" flood-color="rgba(15,35,45,0.24)"/>
    </filter>
    <marker id="arrow" markerWidth="9" markerHeight="9" refX="7" refY="4.5" orient="auto">
      <polygon points="0,0 9,4.5 0,9" fill="#1d3b4d"/>
    </marker>
  </defs>
  <rect width="1200" height="760" fill="url(#bg)"/>
  <rect width="1200" height="760" fill="url(#dot)"/>
  <rect x="40" y="40" width="1120" height="680" rx="30" fill="rgba(255,255,255,0.25)" stroke="rgba(25,50,65,0.20)"/>
  
  <rect x="0" y="560" width="1200" height="200" fill="#445d6f"/>
  <rect x="170" y="220" width="540" height="300" rx="20" fill="#2b485b" stroke="#1a3342" stroke-width="6"/>
  <rect x="220" y="270" width="440" height="190" rx="10" fill="#bad4e2"/>
  <path d="M240 400 L320 330 L390 360 L470 290 L560 330 L640 280" stroke="#b23f3f" stroke-width="10" fill="none"/>

  <polygon points="770,180 710,340 790,340 730,520 920,290 830,290 900,180" fill="#f2c052" stroke="#936721" stroke-width="5"/>

  <rect x="930" y="250" width="130" height="220" rx="14" fill="#dde8ef" stroke="#708896" stroke-width="4"/>
  <line x1="995" y1="292" x2="995" y2="375" stroke="#708896" stroke-width="9"/>
  <circle cx="995" cy="410" r="24" fill="#d24d4d" stroke="#7a2525" stroke-width="4"/>
  <line x1="995" y1="410" x2="995" y2="430" stroke="#f8f1dd" stroke-width="6"/>

</svg>
